<?xml version="1.0" encoding="UTF-8" standalone="no"?>
<svg
   width="33.047161"
   height="33.119789"
   viewBox="0 0 33.047161 33.119789"
   fill="none"
   id="svg34"
   sodipodi:docname="call-logo.svg"
   inkscape:version="1.3.2 (091e20e, 2023-11-25, custom)"
   version="1.1"
   xmlns:inkscape="http://www.inkscape.org/namespaces/inkscape"
   xmlns:sodipodi="http://sodipodi.sourceforge.net/DTD/sodipodi-0.dtd"
   xmlns="http://www.w3.org/2000/svg"
   xmlns:svg="http://www.w3.org/2000/svg">
  <sodipodi:namedview
     id="namedview1"
     pagecolor="#ffffff"
     bordercolor="#000000"
     borderopacity="0.25"
     inkscape:showpageshadow="2"
     inkscape:pageopacity="0.0"
     inkscape:pagecheckerboard="0"
     inkscape:deskcolor="#d1d1d1"
     inkscape:zoom="6.578803"
     inkscape:cx="108.15037"
     inkscape:cy="23.180509"
     inkscape:window-width="2560"
     inkscape:window-height="1387"
     inkscape:window-x="-8"
     inkscape:window-y="22"
     inkscape:window-maximized="1"
     inkscape:current-layer="svg34" />
  <defs
     id="defs38" />
  <namedview
     id="namedview36"
     pagecolor="#505050"
     bordercolor="#eeeeee"
     borderopacity="1"
     inkscape:pageshadow="0"
     inkscape:pageopacity="0"
     inkscape:pagecheckerboard="0"
     showgrid="false"
     inkscape:zoom="5.2076923"
     inkscape:cx="150.25849"
     inkscape:cy="14.78582"
     inkscape:window-width="2560"
     inkscape:window-height="1383"
     inkscape:window-x="0"
     inkscape:window-y="29"
     inkscape:window-maximized="1"
     inkscape:current-layer="svg34" />
  <desc
     id="desc2">Zyfra Call (Beta)</desc>
  <g
     id="g988"
     transform="matrix(0.40096502,0,0,0.40096502,-1.2171213,-0.87928362)">
    <g
       id="g85"
       transform="translate(-0.50452,-0.50688141)">
      <g
         id="g19">
        <path
           d="m 62.55,80.49 c 7.07,0.02 13.53,-3.98 16.68,-10.31 3.15,-6.33 2.45,-13.91 -1.81,-19.56 -2.98,-3.88 -2.98,-9.28 0,-13.17 C 81.7,31.8 82.41,24.21 79.26,17.86 76.11,11.51 69.64,7.5 62.55,7.53 58.5,7.51 54.56,8.84 51.35,11.29 c -1.89,1.47 -4.22,2.27 -6.61,2.27 -2.36,0 -4.66,-0.78 -6.53,-2.23 C 32.59,7.04 25.03,6.31 18.7,9.45 12.36,12.61 8.35,19.07 8.35,26.15 c -0.02,4.01 1.27,7.91 3.66,11.13 0.01,0.01 0.07,0.1 0.08,0.11 1.46,1.86 2.26,4.14 2.28,6.49 0.01,2.37 -0.77,4.67 -2.21,6.54 -5.62,7.4 -4.95,17.8 1.57,24.42 6.52,6.61 16.91,7.39 24.34,1.83 0,0 0.07,0 0.08,0 3.87,-2.99 9.26,-2.99 13.12,0 3.23,2.49 7.2,3.84 11.28,3.82 z M 44.74,72.11 c -2.89,0 -5.69,0.97 -7.96,2.75 0,0 -0.06,0 -0.07,0 -2.81,2.14 -6.25,3.29 -9.78,3.28 -8.97,-0.01 -16.24,-7.3 -16.25,-16.29 -0.01,-3.57 1.16,-7.04 3.34,-9.87 1.75,-2.29 2.69,-5.1 2.68,-7.98 0.01,-2.87 -0.93,-5.67 -2.68,-7.95 -0.01,-0.01 -0.06,-0.09 -0.07,-0.1 C 9.06,29.44 9.71,20.33 15.47,14.58 21.23,8.84 30.35,8.26 36.8,13.21 c 2.27,1.76 5.07,2.71 7.94,2.7 2.91,0.01 5.75,-0.96 8.04,-2.76 2.81,-2.14 6.24,-3.3 9.77,-3.29 4.32,-0.01 8.47,1.7 11.52,4.76 3.06,3.06 4.78,7.2 4.79,11.53 0.05,3.58 -1.1,7.08 -3.26,9.94 -3.59,4.73 -3.59,11.27 0,15.99 2.13,2.81 3.27,6.24 3.26,9.77 -0.01,4.33 -1.73,8.47 -4.79,11.53 -3.05,3.06 -7.2,4.77 -11.52,4.76 -3.56,0.01 -7.03,-1.17 -9.85,-3.35 0,0 0,0 0,0 -3.39,-1.8 -6.04,-2.69 -7.96,-2.68 z"
           id="use13"
           style="fill:#59a417;fill-opacity:1" />
        <g
           id="g17">
          <path
             d="m 62.55,80.49 c 7.07,0.02 13.53,-3.98 16.68,-10.31 3.15,-6.33 2.45,-13.91 -1.81,-19.56 -2.98,-3.88 -2.98,-9.28 0,-13.17 C 81.7,31.8 82.41,24.21 79.26,17.86 76.11,11.51 69.64,7.5 62.55,7.53 58.5,7.51 54.56,8.84 51.35,11.29 c -1.89,1.47 -4.22,2.27 -6.61,2.27 -2.36,0 -4.66,-0.78 -6.53,-2.23 C 32.59,7.04 25.03,6.31 18.7,9.45 12.36,12.61 8.35,19.07 8.35,26.15 c -0.02,4.01 1.27,7.91 3.66,11.13 0.01,0.01 0.07,0.1 0.08,0.11 1.46,1.86 2.26,4.14 2.28,6.49 0.01,2.37 -0.77,4.67 -2.21,6.54 -5.62,7.4 -4.95,17.8 1.57,24.42 6.52,6.61 16.91,7.39 24.34,1.83 0,0 0.07,0 0.08,0 3.87,-2.99 9.26,-2.99 13.12,0 3.23,2.49 7.2,3.84 11.28,3.82 z M 44.74,72.11 c -2.89,0 -5.69,0.97 -7.96,2.75 0,0 -0.06,0 -0.07,0 -2.81,2.14 -6.25,3.29 -9.78,3.28 -8.97,-0.01 -16.24,-7.3 -16.25,-16.29 -0.01,-3.57 1.16,-7.04 3.34,-9.87 1.75,-2.29 2.69,-5.1 2.68,-7.98 0.01,-2.87 -0.93,-5.67 -2.68,-7.95 -0.01,-0.01 -0.06,-0.09 -0.07,-0.1 C 9.06,29.44 9.71,20.33 15.47,14.58 21.23,8.84 30.35,8.26 36.8,13.21 c 2.27,1.76 5.07,2.71 7.94,2.7 2.91,0.01 5.75,-0.96 8.04,-2.76 2.81,-2.14 6.24,-3.3 9.77,-3.29 4.32,-0.01 8.47,1.7 11.52,4.76 3.06,3.06 4.78,7.2 4.79,11.53 0.05,3.58 -1.1,7.08 -3.26,9.94 -3.59,4.73 -3.59,11.27 0,15.99 2.13,2.81 3.27,6.24 3.26,9.77 -0.01,4.33 -1.73,8.47 -4.79,11.53 -3.05,3.06 -7.2,4.77 -11.52,4.76 -3.56,0.01 -7.03,-1.17 -9.85,-3.35 0,0 0,0 0,0 -3.39,-1.8 -6.04,-2.69 -7.96,-2.68 z"
             id="use15"
             style="fill-opacity:0;stroke:#000000;stroke-width:1px;stroke-opacity:0" />
        </g>
      </g>
      <g
         id="g27">
        <path
           d="M 64.74,84.8 C 64.73,84.79 64.66,84.71 64.65,84.7 72.49,84.68 79.64,80.24 83.14,73.23 86.64,66.21 85.9,57.82 81.23,51.52 77.84,47.1 77.84,40.97 81.23,36.56 86,30.27 86.8,21.82 83.3,14.75 79.82,7.68 72.62,3.2 64.74,3.2 60.22,3.18 55.82,4.66 52.24,7.41 50.1,9.08 47.46,9.99 44.74,9.98 42.07,10 39.46,9.14 37.33,7.53 33.74,4.73 29.31,3.2 24.76,3.2 16.92,3.21 9.75,7.64 6.25,14.65 c -3.51,7.03 -2.78,15.43 1.9,21.73 0.02,0.01 0.13,0.11 0.15,0.12 1.66,2.14 2.56,4.78 2.56,7.5 0.01,2.69 -0.87,5.3 -2.51,7.43 -2.79,3.61 -4.31,8.04 -4.31,12.6 0.05,7.85 4.52,15 11.55,18.49 7.03,3.48 15.42,2.69 21.67,-2.05 4.39,-3.38 10.51,-3.38 14.9,0 0,0 0.01,0 0.01,0 5.34,2.89 9.53,4.33 12.57,4.33 z m -20,-9.11 C 41.51,75.67 38.36,76.75 35.82,78.74 28.5,84.39 18.12,83.7 11.61,77.14 5.09,70.57 4.44,60.19 10.09,52.86 12.03,50.31 13.08,47.2 13.07,44 c 0.01,-3.21 -1.04,-6.33 -2.99,-8.87 0,-0.01 0,-0.07 0,-0.08 -2.41,-3.19 -3.71,-7.08 -3.7,-11.08 0,-7 3.96,-13.4 10.24,-16.51 6.27,-3.11 13.75,-2.38 19.3,1.88 2.53,1.95 5.63,3 8.82,2.99 3.24,0 6.38,-1.07 8.94,-3.06 3.17,-2.43 7.06,-3.73 11.06,-3.72 4.88,-0.01 9.57,1.93 13.02,5.38 3.46,3.46 5.41,8.15 5.41,13.04 0.05,4.05 -1.25,8 -3.7,11.23 -4.01,5.24 -4.01,12.53 0,17.77 5.58,7.37 4.85,17.73 -1.71,24.24 -6.54,6.51 -16.9,7.13 -24.18,1.46 0,0 0,0 0,0 -3.76,-2 -6.71,-2.99 -8.84,-2.98 z"
           id="use21"
           style="fill:#59a417;fill-opacity:1" />
        <g
           id="g25">
          <path
             d="M 64.74,84.8 C 64.73,84.79 64.66,84.71 64.65,84.7 72.49,84.68 79.64,80.24 83.14,73.23 86.64,66.21 85.9,57.82 81.23,51.52 77.84,47.1 77.84,40.97 81.23,36.56 86,30.27 86.8,21.82 83.3,14.75 79.82,7.68 72.62,3.2 64.74,3.2 60.22,3.18 55.82,4.66 52.24,7.41 50.1,9.08 47.46,9.99 44.74,9.98 42.07,10 39.46,9.14 37.33,7.53 33.74,4.73 29.31,3.2 24.76,3.2 16.92,3.21 9.75,7.64 6.25,14.65 c -3.51,7.03 -2.78,15.43 1.9,21.73 0.02,0.01 0.13,0.11 0.15,0.12 1.66,2.14 2.56,4.78 2.56,7.5 0.01,2.69 -0.87,5.3 -2.51,7.43 -2.79,3.61 -4.31,8.04 -4.31,12.6 0.05,7.85 4.52,15 11.55,18.49 7.03,3.48 15.42,2.69 21.67,-2.05 4.39,-3.38 10.51,-3.38 14.9,0 0,0 0.01,0 0.01,0 5.34,2.89 9.53,4.33 12.57,4.33 z m -20,-9.11 C 41.51,75.67 38.36,76.75 35.82,78.74 28.5,84.39 18.12,83.7 11.61,77.14 5.09,70.57 4.44,60.19 10.09,52.86 12.03,50.31 13.08,47.2 13.07,44 c 0.01,-3.21 -1.04,-6.33 -2.99,-8.87 0,-0.01 0,-0.07 0,-0.08 -2.41,-3.19 -3.71,-7.08 -3.7,-11.08 0,-7 3.96,-13.4 10.24,-16.51 6.27,-3.11 13.75,-2.38 19.3,1.88 2.53,1.95 5.63,3 8.82,2.99 3.24,0 6.38,-1.07 8.94,-3.06 3.17,-2.43 7.06,-3.73 11.06,-3.72 4.88,-0.01 9.57,1.93 13.02,5.38 3.46,3.46 5.41,8.15 5.41,13.04 0.05,4.05 -1.25,8 -3.7,11.23 -4.01,5.24 -4.01,12.53 0,17.77 5.58,7.37 4.85,17.73 -1.71,24.24 -6.54,6.51 -16.9,7.13 -24.18,1.46 0,0 0,0 0,0 -3.76,-2 -6.71,-2.99 -8.84,-2.98 z"
             id="use23"
             style="fill-opacity:0;stroke:#000000;stroke-width:1px;stroke-opacity:0" />
        </g>
      </g>
      <g
         id="g35">
        <path
           d="m 60.38,76.18 c 9.04,-0.06 16.35,-7.41 16.38,-16.48 0.01,-3.58 -1.15,-7.06 -3.3,-9.91 -2.57,-3.36 -2.57,-8.03 0,-11.39 4.91,-6.57 4.26,-15.75 -1.52,-21.57 -5.77,-5.81 -14.94,-6.49 -21.5,-1.59 -3.36,2.54 -7.98,2.54 -11.34,0 -2.86,-2.2 -6.37,-3.4 -9.99,-3.39 -9.06,0.03 -16.41,7.39 -16.44,16.48 0,3.51 1.12,6.92 3.21,9.74 0.01,0.01 0.09,0.12 0.1,0.13 1.28,1.65 1.96,3.68 1.94,5.77 0.01,2 -0.62,3.94 -1.81,5.54 -0.01,0.01 -0.08,0.11 -0.09,0.12 -4.99,6.56 -4.38,15.8 1.43,21.66 5.8,5.85 15.03,6.49 21.59,1.51 3.36,-2.54 8,-2.54 11.35,0 2.87,2.2 6.38,3.39 9.99,3.38 z M 44.74,68.53 c -2.59,0 -5.1,0.87 -7.14,2.48 -2.43,1.88 -5.41,2.89 -8.49,2.89 C 25.36,73.89 21.77,72.4 19.13,69.74 16.48,67.07 15,63.47 15,59.71 c -0.01,-3.02 0.96,-5.98 2.76,-8.41 0.02,-0.01 0.12,-0.15 0.13,-0.17 1.53,-2 2.36,-4.45 2.38,-6.97 0,-0.02 0,-0.14 0,-0.16 0.01,-2.54 -0.82,-5.02 -2.35,-7.04 -0.01,-0.01 -0.08,-0.11 -0.09,-0.12 -4.34,-5.65 -3.82,-13.64 1.22,-18.68 5.04,-5.03 13.03,-5.52 18.64,-1.13 4.18,3.24 10.01,3.24 14.19,0 5.62,-4.47 13.71,-3.99 18.77,1.12 5.06,5.11 5.5,13.2 1.01,18.82 -3.19,4.2 -3.19,10.01 0,14.2 3.18,4.29 3.68,9.99 1.31,14.77 -2.36,4.77 -7.21,7.81 -12.53,7.85 -3.12,0.04 -6.16,-0.98 -8.64,-2.88 0,0 0,0 0.01,0 -3.01,-1.6 -5.37,-2.39 -7.07,-2.38 z"
           id="use29"
           style="fill:#59a417;fill-opacity:1" />
        <g
           id="g33">
          <path
             d="m 60.38,76.18 c 9.04,-0.06 16.35,-7.41 16.38,-16.48 0.01,-3.58 -1.15,-7.06 -3.3,-9.91 -2.57,-3.36 -2.57,-8.03 0,-11.39 4.91,-6.57 4.26,-15.75 -1.52,-21.57 -5.77,-5.81 -14.94,-6.49 -21.5,-1.59 -3.36,2.54 -7.98,2.54 -11.34,0 -2.86,-2.2 -6.37,-3.4 -9.99,-3.39 -9.06,0.03 -16.41,7.39 -16.44,16.48 0,3.51 1.12,6.92 3.21,9.74 0.01,0.01 0.09,0.12 0.1,0.13 1.28,1.65 1.96,3.68 1.94,5.77 0.01,2 -0.62,3.94 -1.81,5.54 -0.01,0.01 -0.08,0.11 -0.09,0.12 -4.99,6.56 -4.38,15.8 1.43,21.66 5.8,5.85 15.03,6.49 21.59,1.51 3.36,-2.54 8,-2.54 11.35,0 2.87,2.2 6.38,3.39 9.99,3.38 z M 44.74,68.53 c -2.59,0 -5.1,0.87 -7.14,2.48 -2.43,1.88 -5.41,2.89 -8.49,2.89 C 25.36,73.89 21.77,72.4 19.13,69.74 16.48,67.07 15,63.47 15,59.71 c -0.01,-3.02 0.96,-5.98 2.76,-8.41 0.02,-0.01 0.12,-0.15 0.13,-0.17 1.53,-2 2.36,-4.45 2.38,-6.97 0,-0.02 0,-0.14 0,-0.16 0.01,-2.54 -0.82,-5.02 -2.35,-7.04 -0.01,-0.01 -0.08,-0.11 -0.09,-0.12 -4.34,-5.65 -3.82,-13.64 1.22,-18.68 5.04,-5.03 13.03,-5.52 18.64,-1.13 4.18,3.24 10.01,3.24 14.19,0 5.62,-4.47 13.71,-3.99 18.77,1.12 5.06,5.11 5.5,13.2 1.01,18.82 -3.19,4.2 -3.19,10.01 0,14.2 3.18,4.29 3.68,9.99 1.31,14.77 -2.36,4.77 -7.21,7.81 -12.53,7.85 -3.12,0.04 -6.16,-0.98 -8.64,-2.88 0,0 0,0 0.01,0 -3.01,-1.6 -5.37,-2.39 -7.07,-2.38 z"
             id="use31"
             style="fill-opacity:0;stroke:#000000;stroke-width:1px;stroke-opacity:0" />
        </g>
      </g>
      <g
         id="g43">
        <path
           d="m 58.39,72.25 c 0.01,0.01 0.06,0.05 0.06,0.06 5.51,0 10.55,-3.12 13,-8.06 2.46,-4.94 1.93,-10.84 -1.37,-15.26 -2.2,-2.88 -2.2,-6.87 0,-9.75 0,-0.01 0,-0.07 0,-0.07 1.89,-2.53 2.9,-5.61 2.88,-8.76 -0.01,-8.05 -6.51,-14.57 -14.54,-14.57 -3.11,-0.01 -6.14,1 -8.63,2.88 -0.01,0.01 -0.12,0.08 -0.13,0.09 -2.88,2.18 -6.85,2.18 -9.73,0 -4.38,-3.35 -10.28,-3.93 -15.23,-1.48 -4.95,2.45 -8.09,7.5 -8.1,13.02 0,3.12 1.01,6.16 2.87,8.66 0.01,0.01 0.07,0.09 0.08,0.1 2.2,2.87 2.2,6.86 0,9.74 -4.33,5.8 -3.75,13.89 1.35,19.02 5.09,5.12 13.18,5.72 18.96,1.4 2.88,-2.18 6.85,-2.18 9.73,0 2.52,1.94 5.62,2.99 8.8,2.98 z M 38.42,67.43 C 33.59,71.34 26.58,70.97 22.18,66.56 17.78,62.15 17.4,55.14 21.3,50.28 c 2.81,-3.71 2.81,-8.83 0,-12.54 0,-0.01 0,-0.07 0,-0.07 -2.85,-3.72 -3.32,-8.74 -1.23,-12.93 2.09,-4.19 6.4,-6.81 11.07,-6.74 2.68,-0.01 5.28,0.87 7.4,2.51 3.7,2.83 8.83,2.83 12.53,0 4.87,-3.74 11.76,-3.26 16.06,1.12 4.31,4.39 4.7,11.29 0.91,16.12 0,0.01 0,0.07 0,0.07 -2.76,3.73 -2.72,8.84 0.11,12.51 3.63,4.89 3.11,11.7 -1.2,15.99 -4.31,4.28 -11.12,4.72 -15.95,1.04 0,0 0,0 0,0 -5.93,-1.88 -10.12,-1.86 -12.58,0.07 z"
           id="use37"
           style="fill:#59a417;fill-opacity:1" />
        <g
           id="g41">
          <path
             d="m 58.39,72.25 c 0.01,0.01 0.06,0.05 0.06,0.06 5.51,0 10.55,-3.12 13,-8.06 2.46,-4.94 1.93,-10.84 -1.37,-15.26 -2.2,-2.88 -2.2,-6.87 0,-9.75 0,-0.01 0,-0.07 0,-0.07 1.89,-2.53 2.9,-5.61 2.88,-8.76 -0.01,-8.05 -6.51,-14.57 -14.54,-14.57 -3.11,-0.01 -6.14,1 -8.63,2.88 -0.01,0.01 -0.12,0.08 -0.13,0.09 -2.88,2.18 -6.85,2.18 -9.73,0 -4.38,-3.35 -10.28,-3.93 -15.23,-1.48 -4.95,2.45 -8.09,7.5 -8.1,13.02 0,3.12 1.01,6.16 2.87,8.66 0.01,0.01 0.07,0.09 0.08,0.1 2.2,2.87 2.2,6.86 0,9.74 -4.33,5.8 -3.75,13.89 1.35,19.02 5.09,5.12 13.18,5.72 18.96,1.4 2.88,-2.18 6.85,-2.18 9.73,0 2.52,1.94 5.62,2.99 8.8,2.98 z M 38.42,67.43 C 33.59,71.34 26.58,70.97 22.18,66.56 17.78,62.15 17.4,55.14 21.3,50.28 c 2.81,-3.71 2.81,-8.83 0,-12.54 0,-0.01 0,-0.07 0,-0.07 -2.85,-3.72 -3.32,-8.74 -1.23,-12.93 2.09,-4.19 6.4,-6.81 11.07,-6.74 2.68,-0.01 5.28,0.87 7.4,2.51 3.7,2.83 8.83,2.83 12.53,0 4.87,-3.74 11.76,-3.26 16.06,1.12 4.31,4.39 4.7,11.29 0.91,16.12 0,0.01 0,0.07 0,0.07 -2.76,3.73 -2.72,8.84 0.11,12.51 3.63,4.89 3.11,11.7 -1.2,15.99 -4.31,4.28 -11.12,4.72 -15.95,1.04 0,0 0,0 0,0 -5.93,-1.88 -10.12,-1.86 -12.58,0.07 z"
             id="use39"
             style="fill-opacity:0;stroke:#000000;stroke-width:1px;stroke-opacity:0" />
        </g>
      </g>
      <g
         id="g51">
        <path
           d="m 56.42,68.33 c 6.94,-0.05 12.52,-5.71 12.51,-12.66 0.01,-2.73 -0.87,-5.39 -2.52,-7.57 -1.84,-2.41 -1.84,-5.75 0,-8.15 1.68,-2.2 2.59,-4.89 2.58,-7.65 -0.01,-6.97 -5.64,-12.62 -12.59,-12.63 -2.75,-0.01 -5.42,0.9 -7.6,2.57 -2.41,1.81 -5.71,1.81 -8.12,0 -2.18,-1.69 -4.87,-2.6 -7.64,-2.6 -6.94,0.01 -12.58,5.66 -12.59,12.63 -0.01,2.75 0.89,5.43 2.55,7.62 1.82,2.4 1.82,5.72 0,8.12 -2.9,3.83 -3.38,8.98 -1.25,13.28 2.13,4.3 6.52,7.02 11.32,7.01 2.7,0.01 5.33,-0.86 7.49,-2.48 0.01,-0.01 0.1,-0.07 0.11,-0.08 2.4,-1.81 5.72,-1.81 8.12,0 -0.01,0 -0.01,0 -0.01,0 3.26,1.73 5.8,2.59 7.64,2.59 z M 44.74,62.02 c -2,-0.02 -3.95,0.63 -5.53,1.86 -3.1,2.34 -7.26,2.72 -10.73,0.98 -3.48,-1.74 -5.68,-5.3 -5.68,-9.19 -0.02,-2.25 0.72,-4.44 2.1,-6.23 2.48,-3.24 2.48,-7.75 0,-11 C 23.55,36.67 22.83,34.5 22.84,32.27 22.85,26.6 27.43,22 33.09,22 c 2.25,-0.01 4.44,0.74 6.21,2.12 3.25,2.44 7.72,2.44 10.97,0 3.09,-2.35 7.26,-2.74 10.73,-1 3.48,1.74 5.68,5.3 5.68,9.19 0.02,2.26 -0.72,4.45 -2.1,6.24 -2.48,3.24 -2.48,7.75 0,10.99 3.04,4.1 2.61,9.81 -1.01,13.41 -3.61,3.6 -9.31,3.99 -13.38,0.92 -1.56,-1.21 -3.48,-1.86 -5.45,-1.85 z"
           id="use45"
           style="fill:#59a417;fill-opacity:1" />
        <g
           id="g49">
          <path
             d="m 56.42,68.33 c 6.94,-0.05 12.52,-5.71 12.51,-12.66 0.01,-2.73 -0.87,-5.39 -2.52,-7.57 -1.84,-2.41 -1.84,-5.75 0,-8.15 1.68,-2.2 2.59,-4.89 2.58,-7.65 -0.01,-6.97 -5.64,-12.62 -12.59,-12.63 -2.75,-0.01 -5.42,0.9 -7.6,2.57 -2.41,1.81 -5.71,1.81 -8.12,0 -2.18,-1.69 -4.87,-2.6 -7.64,-2.6 -6.94,0.01 -12.58,5.66 -12.59,12.63 -0.01,2.75 0.89,5.43 2.55,7.62 1.82,2.4 1.82,5.72 0,8.12 -2.9,3.83 -3.38,8.98 -1.25,13.28 2.13,4.3 6.52,7.02 11.32,7.01 2.7,0.01 5.33,-0.86 7.49,-2.48 0.01,-0.01 0.1,-0.07 0.11,-0.08 2.4,-1.81 5.72,-1.81 8.12,0 -0.01,0 -0.01,0 -0.01,0 3.26,1.73 5.8,2.59 7.64,2.59 z M 44.74,62.02 c -2,-0.02 -3.95,0.63 -5.53,1.86 -3.1,2.34 -7.26,2.72 -10.73,0.98 -3.48,-1.74 -5.68,-5.3 -5.68,-9.19 -0.02,-2.25 0.72,-4.44 2.1,-6.23 2.48,-3.24 2.48,-7.75 0,-11 C 23.55,36.67 22.83,34.5 22.84,32.27 22.85,26.6 27.43,22 33.09,22 c 2.25,-0.01 4.44,0.74 6.21,2.12 3.25,2.44 7.72,2.44 10.97,0 3.09,-2.35 7.26,-2.74 10.73,-1 3.48,1.74 5.68,5.3 5.68,9.19 0.02,2.26 -0.72,4.45 -2.1,6.24 -2.48,3.24 -2.48,7.75 0,10.99 3.04,4.1 2.61,9.81 -1.01,13.41 -3.61,3.6 -9.31,3.99 -13.38,0.92 -1.56,-1.21 -3.48,-1.86 -5.45,-1.85 z"
             id="use47"
             style="fill-opacity:0;stroke:#000000;stroke-width:1px;stroke-opacity:0" />
        </g>
      </g>
      <g
         id="g59">
        <path
           d="m 54.39,64.4 c 4.07,0.02 7.8,-2.27 9.61,-5.91 1.81,-3.65 1.4,-8.01 -1.06,-11.26 -0.73,-0.93 -1.12,-2.09 -1.11,-3.27 0,-1.18 0.38,-2.32 1.1,-3.25 1.4,-1.84 2.16,-4.08 2.17,-6.39 0,-4.06 -2.29,-7.76 -5.91,-9.57 -3.62,-1.81 -7.96,-1.41 -11.18,1.04 -1.92,1.45 -4.57,1.45 -6.49,0 -4.2,-3.19 -10.11,-2.83 -13.88,0.86 -3.78,3.69 -4.3,9.59 -1.23,13.89 0.01,0.02 0.12,0.15 0.13,0.17 1.46,1.92 1.46,4.58 0,6.49 -3.22,4.26 -2.82,10.23 0.93,14.01 3.76,3.79 9.73,4.21 13.97,1 1.92,-1.45 4.57,-1.45 6.49,0 1.85,1.43 4.13,2.2 6.46,2.19 z m -9.67,-5.64 c 0,0 0.02,0 0.02,0 -1.72,-0.01 -3.38,0.56 -4.73,1.62 -3.33,2.33 -7.85,1.92 -10.7,-0.98 -2.85,-2.9 -3.19,-7.44 -0.81,-10.74 2.05,-2.74 2.06,-6.5 0.01,-9.25 -0.01,-0.01 -0.09,-0.13 -0.1,-0.14 -1.89,-2.53 -2.2,-5.9 -0.79,-8.73 1.4,-2.82 4.27,-4.61 7.42,-4.62 1.83,0 3.61,0.6 5.05,1.72 2.77,2.08 6.58,2.08 9.35,0 3.32,-2.54 7.99,-2.22 10.93,0.75 2.93,2.96 3.23,7.64 0.69,10.95 -2.12,2.77 -2.12,6.62 0,9.39 1.89,2.53 2.19,5.91 0.77,8.73 -1.4,2.82 -4.29,4.6 -7.44,4.59 -1.82,0.01 -3.59,-0.6 -5.03,-1.72 -1.33,-1.01 -2.96,-1.57 -4.64,-1.57 z"
           id="use53"
           style="fill:#59a417;fill-opacity:1" />
        <g
           id="g57">
          <path
             d="m 54.39,64.4 c 4.07,0.02 7.8,-2.27 9.61,-5.91 1.81,-3.65 1.4,-8.01 -1.06,-11.26 -0.73,-0.93 -1.12,-2.09 -1.11,-3.27 0,-1.18 0.38,-2.32 1.1,-3.25 1.4,-1.84 2.16,-4.08 2.17,-6.39 0,-4.06 -2.29,-7.76 -5.91,-9.57 -3.62,-1.81 -7.96,-1.41 -11.18,1.04 -1.92,1.45 -4.57,1.45 -6.49,0 -4.2,-3.19 -10.11,-2.83 -13.88,0.86 -3.78,3.69 -4.3,9.59 -1.23,13.89 0.01,0.02 0.12,0.15 0.13,0.17 1.46,1.92 1.46,4.58 0,6.49 -3.22,4.26 -2.82,10.23 0.93,14.01 3.76,3.79 9.73,4.21 13.97,1 1.92,-1.45 4.57,-1.45 6.49,0 1.85,1.43 4.13,2.2 6.46,2.19 z m -9.67,-5.64 c 0,0 0.02,0 0.02,0 -1.72,-0.01 -3.38,0.56 -4.73,1.62 -3.33,2.33 -7.85,1.92 -10.7,-0.98 -2.85,-2.9 -3.19,-7.44 -0.81,-10.74 2.05,-2.74 2.06,-6.5 0.01,-9.25 -0.01,-0.01 -0.09,-0.13 -0.1,-0.14 -1.89,-2.53 -2.2,-5.9 -0.79,-8.73 1.4,-2.82 4.27,-4.61 7.42,-4.62 1.83,0 3.61,0.6 5.05,1.72 2.77,2.08 6.58,2.08 9.35,0 3.32,-2.54 7.99,-2.22 10.93,0.75 2.93,2.96 3.23,7.64 0.69,10.95 -2.12,2.77 -2.12,6.62 0,9.39 1.89,2.53 2.19,5.91 0.77,8.73 -1.4,2.82 -4.29,4.6 -7.44,4.59 -1.82,0.01 -3.59,-0.6 -5.03,-1.72 -1.33,-1.01 -2.96,-1.57 -4.64,-1.57 z"
             id="use55"
             style="fill-opacity:0;stroke:#000000;stroke-width:1px;stroke-opacity:0" />
        </g>
      </g>
      <g
         id="g67">
        <path
           d="m 52.47,60.48 c -0.01,0 -0.08,-0.01 -0.09,-0.02 3.3,-0.01 6.32,-1.88 7.79,-4.84 1.48,-2.96 1.16,-6.5 -0.81,-9.15 -1.11,-1.44 -1.12,-3.44 -0.02,-4.88 0.01,-0.01 0.07,-0.09 0.08,-0.1 1.96,-2.66 2.26,-6.19 0.78,-9.14 -2.16,-4.3 -7.39,-6.04 -11.7,-3.88 -0.47,0.24 -0.93,0.52 -1.36,0.84 -1.44,1.1 -3.43,1.1 -4.87,0 -3.45,-2.61 -8.3,-2.3 -11.38,0.74 -3.09,3.04 -3.5,7.88 -0.96,11.4 0.02,0.01 0.15,0.14 0.16,0.16 1.11,1.43 1.11,3.43 0,4.87 -1.96,2.65 -2.27,6.18 -0.8,9.14 1.47,2.95 4.47,4.82 7.77,4.84 1.9,0.01 3.75,-0.61 5.26,-1.77 1.45,-1.08 3.44,-1.08 4.88,0 1.51,1.16 3.36,1.79 5.27,1.79 z m -7.73,-4.97 c -1.44,0 -2.84,0.5 -3.96,1.4 -1.93,1.45 -4.51,1.69 -6.67,0.61 -2.17,-1.09 -3.54,-3.29 -3.54,-5.71 -0.01,-1.4 0.45,-2.77 1.31,-3.87 0.84,-1.11 1.3,-2.47 1.29,-3.87 0.01,-1.37 -0.43,-2.7 -1.26,-3.79 0,-0.01 0,-0.08 0,-0.09 -1.94,-2.55 -1.69,-6.14 0.58,-8.4 2.26,-2.26 5.85,-2.48 8.38,-0.53 2.29,1.72 5.44,1.72 7.73,0 1.1,-0.85 2.45,-1.3 3.84,-1.3 3.52,0.01 6.37,2.87 6.37,6.39 0.01,1.4 -0.45,2.76 -1.31,3.87 0,0.01 0,0.09 0,0.1 -0.79,1.09 -1.22,2.41 -1.22,3.77 -0.01,1.38 0.44,2.73 1.28,3.84 1.43,1.93 1.66,4.51 0.58,6.67 -1.07,2.15 -3.27,3.51 -5.67,3.53 -1.4,0 -2.76,-0.46 -3.87,-1.32 0,0 0,0 0,0 -1.65,-0.87 -2.93,-1.3 -3.86,-1.3 z"
           id="use61"
           style="fill:#59a417;fill-opacity:1" />
        <g
           id="g65">
          <path
             d="m 52.47,60.48 c -0.01,0 -0.08,-0.01 -0.09,-0.02 3.3,-0.01 6.32,-1.88 7.79,-4.84 1.48,-2.96 1.16,-6.5 -0.81,-9.15 -1.11,-1.44 -1.12,-3.44 -0.02,-4.88 0.01,-0.01 0.07,-0.09 0.08,-0.1 1.96,-2.66 2.26,-6.19 0.78,-9.14 -2.16,-4.3 -7.39,-6.04 -11.7,-3.88 -0.47,0.24 -0.93,0.52 -1.36,0.84 -1.44,1.1 -3.43,1.1 -4.87,0 -3.45,-2.61 -8.3,-2.3 -11.38,0.74 -3.09,3.04 -3.5,7.88 -0.96,11.4 0.02,0.01 0.15,0.14 0.16,0.16 1.11,1.43 1.11,3.43 0,4.87 -1.96,2.65 -2.27,6.18 -0.8,9.14 1.47,2.95 4.47,4.82 7.77,4.84 1.9,0.01 3.75,-0.61 5.26,-1.77 1.45,-1.08 3.44,-1.08 4.88,0 1.51,1.16 3.36,1.79 5.27,1.79 z m -7.73,-4.97 c -1.44,0 -2.84,0.5 -3.96,1.4 -1.93,1.45 -4.51,1.69 -6.67,0.61 -2.17,-1.09 -3.54,-3.29 -3.54,-5.71 -0.01,-1.4 0.45,-2.77 1.31,-3.87 0.84,-1.11 1.3,-2.47 1.29,-3.87 0.01,-1.37 -0.43,-2.7 -1.26,-3.79 0,-0.01 0,-0.08 0,-0.09 -1.94,-2.55 -1.69,-6.14 0.58,-8.4 2.26,-2.26 5.85,-2.48 8.38,-0.53 2.29,1.72 5.44,1.72 7.73,0 1.1,-0.85 2.45,-1.3 3.84,-1.3 3.52,0.01 6.37,2.87 6.37,6.39 0.01,1.4 -0.45,2.76 -1.31,3.87 0,0.01 0,0.09 0,0.1 -0.79,1.09 -1.22,2.41 -1.22,3.77 -0.01,1.38 0.44,2.73 1.28,3.84 1.43,1.93 1.66,4.51 0.58,6.67 -1.07,2.15 -3.27,3.51 -5.67,3.53 -1.4,0 -2.76,-0.46 -3.87,-1.32 0,0 0,0 0,0 -1.65,-0.87 -2.93,-1.3 -3.86,-1.3 z"
             id="use63"
             style="fill-opacity:0;stroke:#000000;stroke-width:1px;stroke-opacity:0" />
        </g>
      </g>
      <g
         id="g75">
        <path
           d="m 50.48,56.58 c 2.58,-0.02 4.92,-1.49 6.05,-3.81 1.13,-2.31 0.86,-5.07 -0.7,-7.13 -0.36,-0.47 -0.56,-1.04 -0.56,-1.64 0,-0.59 0.2,-1.17 0.56,-1.63 0.93,-1.17 1.43,-2.62 1.44,-4.11 -0.05,-2.53 -1.49,-4.82 -3.74,-5.96 -2.25,-1.14 -4.95,-0.93 -7,0.53 -0.01,0.01 -0.1,0.08 -0.11,0.09 -0.96,0.73 -2.29,0.73 -3.25,0 -1.17,-0.93 -2.63,-1.44 -4.13,-1.44 -2.58,0.01 -4.92,1.47 -6.06,3.78 -1.15,2.32 -0.89,5.08 0.67,7.14 0.36,0.47 0.55,1.04 0.54,1.63 0.01,0.59 -0.19,1.16 -0.54,1.63 -1.56,2.06 -1.82,4.82 -0.68,7.13 1.14,2.32 3.49,3.78 6.07,3.79 1.5,-0.01 2.95,-0.51 4.12,-1.44 0.95,-0.7 2.25,-0.7 3.21,0 1.17,0.92 2.62,1.43 4.11,1.44 z m -2.63,-3.22 c -0.01,0.01 -0.09,0.06 -0.1,0.06 -1.81,-1.36 -4.31,-1.36 -6.12,0 -0.76,0.59 -1.71,0.91 -2.67,0.9 -1.72,0.02 -3.29,-0.95 -4.04,-2.49 -0.76,-1.54 -0.56,-3.38 0.51,-4.73 1.39,-1.8 1.39,-4.32 0,-6.13 -0.58,-0.76 -0.9,-1.7 -0.89,-2.67 0,-2.45 1.98,-4.45 4.43,-4.46 0.98,0 1.93,0.32 2.7,0.93 1.8,1.31 4.23,1.31 6.02,0 0.01,-0.01 0.09,-0.07 0.1,-0.08 1.77,-1.32 4.25,-1.13 5.81,0.44 1.55,1.58 1.72,4.05 0.39,5.83 -0.67,0.87 -1.04,1.94 -1.03,3.04 0,1.13 0.38,2.23 1.08,3.12 0.57,0.76 0.89,1.7 0.89,2.67 -0.01,2.45 -2,4.44 -4.45,4.44 -0.95,0.01 -1.87,-0.29 -2.63,-0.87 z"
           id="use69"
           style="fill:#59a417;fill-opacity:1" />
        <g
           id="g73">
          <path
             d="m 50.48,56.58 c 2.58,-0.02 4.92,-1.49 6.05,-3.81 1.13,-2.31 0.86,-5.07 -0.7,-7.13 -0.36,-0.47 -0.56,-1.04 -0.56,-1.64 0,-0.59 0.2,-1.17 0.56,-1.63 0.93,-1.17 1.43,-2.62 1.44,-4.11 -0.05,-2.53 -1.49,-4.82 -3.74,-5.96 -2.25,-1.14 -4.95,-0.93 -7,0.53 -0.01,0.01 -0.1,0.08 -0.11,0.09 -0.96,0.73 -2.29,0.73 -3.25,0 -1.17,-0.93 -2.63,-1.44 -4.13,-1.44 -2.58,0.01 -4.92,1.47 -6.06,3.78 -1.15,2.32 -0.89,5.08 0.67,7.14 0.36,0.47 0.55,1.04 0.54,1.63 0.01,0.59 -0.19,1.16 -0.54,1.63 -1.56,2.06 -1.82,4.82 -0.68,7.13 1.14,2.32 3.49,3.78 6.07,3.79 1.5,-0.01 2.95,-0.51 4.12,-1.44 0.95,-0.7 2.25,-0.7 3.21,0 1.17,0.92 2.62,1.43 4.11,1.44 z m -2.63,-3.22 c -0.01,0.01 -0.09,0.06 -0.1,0.06 -1.81,-1.36 -4.31,-1.36 -6.12,0 -0.76,0.59 -1.71,0.91 -2.67,0.9 -1.72,0.02 -3.29,-0.95 -4.04,-2.49 -0.76,-1.54 -0.56,-3.38 0.51,-4.73 1.39,-1.8 1.39,-4.32 0,-6.13 -0.58,-0.76 -0.9,-1.7 -0.89,-2.67 0,-2.45 1.98,-4.45 4.43,-4.46 0.98,0 1.93,0.32 2.7,0.93 1.8,1.31 4.23,1.31 6.02,0 0.01,-0.01 0.09,-0.07 0.1,-0.08 1.77,-1.32 4.25,-1.13 5.81,0.44 1.55,1.58 1.72,4.05 0.39,5.83 -0.67,0.87 -1.04,1.94 -1.03,3.04 0,1.13 0.38,2.23 1.08,3.12 0.57,0.76 0.89,1.7 0.89,2.67 -0.01,2.45 -2,4.44 -4.45,4.44 -0.95,0.01 -1.87,-0.29 -2.63,-0.87 z"
             id="use71"
             style="fill-opacity:0;stroke:#000000;stroke-width:1px;stroke-opacity:0" />
        </g>
      </g>
      <g
         id="g83">
        <path
           d="m 48.51,52.64 c 1.32,0.01 2.58,-0.51 3.5,-1.45 0.93,-0.93 1.43,-2.21 1.41,-3.52 -0.01,-1.05 -0.35,-2.06 -0.98,-2.89 -0.35,-0.5 -0.35,-1.16 0,-1.66 0.63,-0.83 0.98,-1.84 0.99,-2.89 0,-1.84 -1.04,-3.53 -2.7,-4.35 -1.65,-0.82 -3.62,-0.63 -5.08,0.49 -0.5,0.34 -1.15,0.34 -1.64,0 -2.13,-1.63 -5.17,-1.22 -6.8,0.9 -0.17,0.23 -0.33,0.48 -0.46,0.74 -0.83,1.62 -0.69,3.57 0.36,5.05 0,0.01 0,0.11 0,0.12 0.19,0.23 0.29,0.52 0.29,0.82 0,0.3 -0.1,0.58 -0.27,0.82 -1.5,1.94 -1.33,4.7 0.41,6.43 1.73,1.73 4.48,1.9 6.41,0.38 0.48,-0.33 1.12,-0.33 1.61,0 0.84,0.66 1.88,1.02 2.95,1.01 z m -1.44,-2.88 c -0.01,0 -0.08,0.01 -0.08,0.01 -1.34,-0.99 -3.16,-0.99 -4.49,0 -0.76,0.58 -1.78,0.67 -2.63,0.25 -1.24,-0.63 -1.74,-2.14 -1.12,-3.38 0.07,-0.13 0.16,-0.27 0.25,-0.39 0.49,-0.65 0.75,-1.44 0.75,-2.25 -0.01,-0.78 -0.25,-1.53 -0.69,-2.16 -0.01,-0.01 -0.07,-0.08 -0.07,-0.09 -0.58,-0.76 -0.67,-1.78 -0.25,-2.64 0.62,-1.23 2.12,-1.74 3.36,-1.13 0.14,0.08 0.28,0.16 0.41,0.26 1.33,1 3.16,1 4.49,0 1.1,-0.83 2.67,-0.62 3.51,0.48 0.69,0.91 0.68,2.16 -0.01,3.06 -0.49,0.64 -0.75,1.43 -0.75,2.23 -0.01,0.82 0.26,1.62 0.76,2.27 0.32,0.41 0.49,0.92 0.5,1.44 0,1.39 -1.12,2.51 -2.5,2.51 0,0 0,0 0,0 -0.68,-0.11 -1.16,-0.27 -1.44,-0.47 z"
           id="use77"
           style="fill:#59a417;fill-opacity:1" />
        <g
           id="g81">
          <path
             d="m 48.51,52.64 c 1.32,0.01 2.58,-0.51 3.5,-1.45 0.93,-0.93 1.43,-2.21 1.41,-3.52 -0.01,-1.05 -0.35,-2.06 -0.98,-2.89 -0.35,-0.5 -0.35,-1.16 0,-1.66 0.63,-0.83 0.98,-1.84 0.99,-2.89 0,-1.84 -1.04,-3.53 -2.7,-4.35 -1.65,-0.82 -3.62,-0.63 -5.08,0.49 -0.5,0.34 -1.15,0.34 -1.64,0 -2.13,-1.63 -5.17,-1.22 -6.8,0.9 -0.17,0.23 -0.33,0.48 -0.46,0.74 -0.83,1.62 -0.69,3.57 0.36,5.05 0,0.01 0,0.11 0,0.12 0.19,0.23 0.29,0.52 0.29,0.82 0,0.3 -0.1,0.58 -0.27,0.82 -1.5,1.94 -1.33,4.7 0.41,6.43 1.73,1.73 4.48,1.9 6.41,0.38 0.48,-0.33 1.12,-0.33 1.61,0 0.84,0.66 1.88,1.02 2.95,1.01 z m -1.44,-2.88 c -0.01,0 -0.08,0.01 -0.08,0.01 -1.34,-0.99 -3.16,-0.99 -4.49,0 -0.76,0.58 -1.78,0.67 -2.63,0.25 -1.24,-0.63 -1.74,-2.14 -1.12,-3.38 0.07,-0.13 0.16,-0.27 0.25,-0.39 0.49,-0.65 0.75,-1.44 0.75,-2.25 -0.01,-0.78 -0.25,-1.53 -0.69,-2.16 -0.01,-0.01 -0.07,-0.08 -0.07,-0.09 -0.58,-0.76 -0.67,-1.78 -0.25,-2.64 0.62,-1.23 2.12,-1.74 3.36,-1.13 0.14,0.08 0.28,0.16 0.41,0.26 1.33,1 3.16,1 4.49,0 1.1,-0.83 2.67,-0.62 3.51,0.48 0.69,0.91 0.68,2.16 -0.01,3.06 -0.49,0.64 -0.75,1.43 -0.75,2.23 -0.01,0.82 0.26,1.62 0.76,2.27 0.32,0.41 0.49,0.92 0.5,1.44 0,1.39 -1.12,2.51 -2.5,2.51 0,0 0,0 0,0 -0.68,-0.11 -1.16,-0.27 -1.44,-0.47 z"
             id="use79"
             style="fill-opacity:0;stroke:#000000;stroke-width:1px;stroke-opacity:0" />
        </g>
      </g>
    </g>
    <g
       id="g946"
       transform="matrix(0.12593488,0,0,0.12593488,12.519632,11.767535)">
      <g
         id="g870">
        <path
           style="fill:#fdc794"
           d="M 415.509,432.044 292.25,379.896 v 0 c 0,0 -0.948,0 -1.896,-0.948 h -7.585 c -16.119,0 -28.444,-12.326 -28.444,-28.444 v -8.533 c 0,-16.119 12.326,-29.393 28.444,-29.393 h 1.896 c -17.067,0 -30.341,-11.378 -30.341,-28.444 v -5.689 c 0,-17.067 13.274,-32.237 30.341,-32.237 h 7.585 c -16.119,0 -28.444,-12.326 -28.444,-28.444 v -8.533 c 0,-16.119 12.326,-29.393 28.444,-29.393 h -75.852 l 18.963,-27.496 c 13.274,-18.015 45.511,-77.748 48.356,-112.83 2.844,-29.393 -46.459,-65.422 -59.733,-12.326 -9.481,37.926 -50.252,91.97 -76.8,114.726 -17.067,14.222 -27.496,33.185 -35.081,47.407 H 74.175 c -16.119,0 -28.444,8.533 -28.444,24.652 v 170.667 c 0,15.17 12.326,32.237 28.444,32.237 h 37.926 c 40.77,30.341 38.874,29.393 132.741,29.393 l 161.185,52.148 c 20.859,7.585 36.978,9.481 47.407,-9.481 10.43,-21.81 5.689,-34.136 -37.925,-56.891"
           id="path866" />
        <path
           style="fill:#fdc794"
           d="M 396.546,246.207 H 292.249 c -16.119,0 -28.444,-12.326 -28.444,-28.444 v -8.533 c 0,-16.119 12.326,-29.393 28.444,-29.393 h 104.296 c 16.119,0 28.444,13.274 28.444,29.393 v 8.533 c 0.001,16.118 -12.325,28.444 -28.443,28.444"
           id="path868" />
      </g>
      <path
         style="fill:#f9a671"
         d="M 396.546,255.688 H 292.249 c -20.859,0 -37.926,-17.067 -37.926,-37.926 v -8.533 c 0,-21.807 17.067,-38.874 37.926,-38.874 h 104.296 c 20.859,0 37.926,17.067 37.926,38.874 v 8.533 c 10e-4,20.859 -17.066,37.926 -37.925,37.926 z m -104.297,-66.37 c -10.43,0 -18.963,8.533 -18.963,19.911 v 8.533 c 0,10.43 8.533,18.963 18.963,18.963 h 104.296 c 10.43,0 18.963,-8.533 18.963,-18.963 v -8.533 c 0,-11.378 -8.533,-19.911 -18.963,-19.911 z"
         id="path872" />
      <path
         style="fill:#fdc794"
         d="M 403.183,312.577 H 284.664 c -17.067,0 -30.341,-11.378 -30.341,-28.444 v -5.689 c 0,-17.067 13.274,-32.237 30.341,-32.237 h 119.467 c 17.067,0 31.289,11.378 31.289,28.444 v 5.689 c -0.948,16.118 -15.171,32.237 -32.237,32.237"
         id="path874" />
      <path
         style="fill:#f9a671"
         d="M 403.183,322.059 H 284.664 c -22.756,0 -39.822,-16.119 -39.822,-37.926 v -5.689 c 0,-22.756 18.015,-41.719 39.822,-41.719 h 119.467 c 22.756,0 40.77,17.067 40.77,37.926 v 5.689 c -0.948,21.807 -19.911,41.719 -41.718,41.719 z M 284.664,255.688 c -11.378,0 -20.859,10.43 -20.859,22.756 v 5.689 c 0,11.378 8.533,18.963 20.859,18.963 h 119.467 c 11.378,0 21.807,-11.378 21.807,-22.756 v -5.689 c 0,-12.326 -11.378,-18.963 -21.807,-18.963 H 284.664 Z"
         id="path876" />
      <path
         style="fill:#fdc794"
         d="M 386.116,378.947 H 282.768 c -16.119,0 -28.444,-12.326 -28.444,-28.444 v -8.533 c 0,-16.119 12.326,-29.393 28.444,-29.393 h 103.348 c 16.119,0 29.393,13.274 29.393,29.393 v 8.533 c 0,16.118 -13.275,28.444 -29.393,28.444"
         id="path878" />
      <g
         id="g884">
        <path
           style="fill:#f9a671"
           d="M 386.116,388.429 H 282.768 c -20.859,0 -37.926,-17.067 -37.926,-37.926 v -8.533 c 0,-21.807 17.067,-38.874 37.926,-38.874 h 103.348 c 20.859,0 38.874,18.015 38.874,38.874 v 8.533 c 0,20.859 -17.067,37.926 -38.874,37.926 z m -103.348,-66.37 c -10.43,0 -18.963,8.533 -18.963,19.911 v 8.533 c 0,10.43 8.533,18.963 18.963,18.963 h 103.348 c 11.378,0 19.911,-8.533 19.911,-18.963 v -8.533 c 0,-10.43 -9.482,-19.911 -19.911,-19.911 z"
           id="path880" />
        <path
           style="fill:#f9a671"
           d="m 102.62,284.133 c -3.793,0 -7.585,-2.844 -9.481,-6.637 -0.948,-1.896 -11.378,-37.926 10.43,-82.489 1.896,-4.741 7.585,-6.637 12.326,-4.741 4.741,1.896 6.637,7.585 4.741,12.326 -18.015,37.926 -9.481,68.267 -9.481,69.215 1.896,4.741 -0.948,10.43 -6.637,12.326 -0.002,0 -0.95,0 -1.898,0 z"
           id="path882" />
      </g>
      <g
         id="g886" />
      <g
         id="g888" />
      <g
         id="g890" />
      <g
         id="g892" />
      <g
         id="g894" />
      <g
         id="g896" />
      <g
         id="g898" />
      <g
         id="g900" />
      <g
         id="g902" />
      <g
         id="g904" />
      <g
         id="g906" />
      <g
         id="g908" />
      <g
         id="g910" />
      <g
         id="g912" />
      <g
         id="g914" />
    </g>
  </g>
</svg>
